<!-- icon666.com - MILLIONS vector ICONS FREE --><svg viewBox="0 0 477.60001 477.60001" xmlns="http://www.w3.org/2000/svg"><path d="m477.601562 238.800781c0 131.886719-106.914062 238.800781-238.800781 238.800781s-238.800781-106.914062-238.800781-238.800781 106.914062-238.800781 238.800781-238.800781 238.800781 106.914062 238.800781 238.800781zm0 0" fill="#382b73" style="fill: rgb(128, 0, 128);"></path><path d="m445.398438 238.800781c0 114.101563-92.496094 206.597657-206.597657 206.597657-114.101562 0-206.597656-92.496094-206.597656-206.597657 0-114.101562 92.496094-206.597656 206.597656-206.597656 114.101563 0 206.597657 92.496094 206.597657 206.597656zm0 0" fill="#473080" style="fill: rgb(191, 191, 191);"></path><path d="m365.285156 338.535156-1.527344-1.527344c16.230469-24.042968 25.707032-53.019531 25.707032-84.207031 0-83.210937-67.453125-150.667969-150.664063-150.667969-83.210937 0-150.667969 67.457032-150.667969 150.667969 0 83.210938 67.457032 150.664063 150.667969 150.664063 31.390625 0 60.527344-9.605469 84.660157-26.027344l1.460937 1.457031 20.058594 20.066407c.785156.78125 1.808593 1.171874 2.828125 1.171874.769531 0 1.539062-.222656 2.203125-.660156.21875-.144531.429687-.316406.625-.511718l34.710937-34.707032c1.558594-1.5625 1.558594-4.09375 0-5.65625zm0 0" fill="#382b73" style="fill: rgb(128, 0, 128);"></path><path d="m389.464844 238.800781c0 83.210938-67.453125 150.664063-150.664063 150.664063-83.210937 0-150.667969-67.453125-150.667969-150.664063 0-83.210937 67.457032-150.667969 150.667969-150.667969 83.210938 0 150.664063 67.457032 150.664063 150.667969zm0 0" fill="#009add" style="fill: rgb(255, 255, 255);"></path><path d="m359.601562 328.851562-4.332031-4.332031c-4.003906-4.003906-10.121093-4.554687-14.742187-1.71875l-12.414063-12.417969c12.085938-17.496093 19.183594-38.707031 19.183594-61.582031 0-59.921875-48.574219-108.5-108.496094-108.5s-108.5 48.578125-108.5 108.5 48.578125 108.496094 108.5 108.496094c23.074219 0 44.453125-7.226563 62.035157-19.503906l4 4 8.351562 8.347656c-2.835938 4.625-2.285156 10.738281 1.71875 14.742187l.125.125 2.351562 2.355469c16.40625-10.054687 30.746094-23.148437 42.21875-38.511719zm0 0" fill="#136da0" style="fill: rgb(128, 0, 128);"></path><path d="m314.90625 337.910156 23.394531-23.390625c.679688-.679687 1.421875-1.261719 2.207031-1.742187l-12.378906-12.378906c-7.382812 10.683593-16.628906 19.976562-27.273437 27.410156l12.308593 12.308594c.480469-.78125 1.0625-1.523438 1.742188-2.207032zm0 0" fill="#fff" style="fill: rgb(255, 255, 255);"></path><path d="m347.296875 238.800781c0 59.921875-48.574219 108.496094-108.496094 108.496094s-108.5-48.574219-108.5-108.496094 48.578125-108.5 108.5-108.5 108.496094 48.578125 108.496094 108.5zm0 0" fill="#fede3a" style="fill: rgb(255, 255, 255);"></path><path d="m314.90625 337.910156 7.648438-7.648437-10.984376-10.984375c-3.382812 3.0625-6.964843 5.914062-10.714843 8.53125l12.308593 12.308594c.480469-.78125 1.0625-1.523438 1.742188-2.207032zm0 0" fill="#e6e7e8" style="fill: rgb(255, 255, 255);"></path><path d="m300.855469 327.808594 3.980469 3.980468c10.644531-7.433593 19.894531-16.722656 27.277343-27.40625l-3.984375-3.984374c-7.382812 10.683593-16.632812 19.976562-27.273437 27.410156zm0 0" fill="#bcbec0"></path><path d="m330.507812 238.800781c0 50.648438-41.058593 91.707031-91.707031 91.707031-50.648437 0-91.707031-41.058593-91.707031-91.707031 0-50.648437 41.058594-91.707031 91.707031-91.707031 50.648438 0 91.707031 41.058594 91.707031 91.707031zm0 0" fill="#e7ad27" style="fill: rgb(255, 111, 60);"></path><path d="m315.519531 238.800781c0 42.371094-34.347656 76.71875-76.71875 76.71875-42.371093 0-76.722656-34.347656-76.722656-76.71875 0-42.371093 34.351563-76.722656 76.722656-76.722656 42.371094 0 76.71875 34.351563 76.71875 76.722656zm0 0" fill="#e43d91" style="fill: rgb(128, 0, 128);"></path><path d="m344.980469 384.960938-30.074219-30.078126c-4.6875-4.6875-4.6875-12.285156 0-16.972656l23.394531-23.390625c4.683594-4.6875 12.285157-4.6875 16.96875 0l30.078125 30.074219c1.5625 1.5625 1.5625 4.09375 0 5.65625l-34.707031 34.710938c-1.5625 1.5625-4.097656 1.5625-5.660156 0zm0 0" fill="#fede3a" style="fill: rgb(255, 255, 255);"></path><path d="m355.386719 314.636719 9.890625 9.890625-40.363282 40.363281-9.890624-9.890625zm0 0" fill="#f7cb15" style="fill: rgb(255, 111, 60);"></path><path d="m326.234375 326.585938-11.328125 11.328124c-4.6875 4.6875-4.6875 12.285157 0 16.96875l30.074219 30.078126c1.5625 1.5625 4.09375 1.5625 5.65625 0l8.5-8.5-32.90625-32.90625c-4.683594-4.6875-4.683594-12.285157.003906-16.96875zm0 0" fill="#e7ad27" style="fill: rgb(255, 111, 60);"></path><path d="m187.933594 224.175781v48.625c0 4.417969 3.578125 8 7.996094 8h85.742187c4.417969 0 7.996094-3.582031 7.996094-8v-48.625c0-4.417969-3.578125-8-7.996094-8h-85.742187c-4.417969 0-7.996094 3.578125-7.996094 8zm0 0" fill="#e7ad27" style="fill: rgb(255, 111, 60);"></path><path d="m187.933594 214.574219v48.628906c0 4.417969 3.578125 8 7.996094 8h85.742187c4.417969 0 7.996094-3.582031 7.996094-8v-48.628906c0-4.417969-3.578125-7.996094-7.996094-7.996094h-85.742187c-4.417969-.003906-7.996094 3.578125-7.996094 7.996094zm0 0" fill="#fddd3a" style="fill: rgb(208, 210, 211);"></path><path d="m187.933594 217.773438v16.316406c0 4.417968 3.578125 8 7.996094 8h85.742187c4.417969 0 7.996094-3.582032 7.996094-8v-16.316406c0-4.417969-3.578125-7.996094-7.996094-7.996094h-85.742187c-4.417969 0-7.996094 3.582031-7.996094 7.996094zm0 0" fill="#e7ad27" style="fill: rgb(255, 111, 60);"></path><path d="m187.933594 214.574219v16.316406c0 4.417969 3.578125 8 7.996094 8h85.742187c4.417969 0 7.996094-3.582031 7.996094-8v-16.316406c0-4.417969-3.578125-7.996094-7.996094-7.996094h-85.742187c-4.417969-.003906-7.996094 3.578125-7.996094 7.996094zm0 0" fill="#f6ca14" style="fill: rgb(255, 184, 31);"></path><path d="m195.929688 206.574219h85.742187c4.417969 0 7.996094 3.582031 7.996094 8v3.199219c0-4.417969-3.578125-7.996094-7.996094-7.996094h-85.742187c-4.417969 0-7.996094 3.578125-7.996094 7.996094v-3.199219c0-4.417969 3.578125-8 7.996094-8zm0 0" fill="#fddd3a" style="fill: rgb(208, 210, 211);"></path><path d="m259.359375 249.769531h3.519531c1.765625 0 3.199219-1.433593 3.199219-3.203125v-8.957031c0-1.765625-1.429687-3.199219-3.199219-3.199219h-3.519531c-1.765625 0-3.199219 1.433594-3.199219 3.199219v8.957031c0 1.769532 1.433594 3.203125 3.199219 3.203125zm0 0" fill="#f6ca14" style="fill: rgb(255, 184, 31);"></path><path d="m259.359375 246.566406h3.519531c1.765625 0 3.199219-1.429687 3.199219-3.199218v-8.957032c0-1.765625-1.429687-3.199218-3.199219-3.199218h-3.519531c-1.765625 0-3.199219 1.429687-3.199219 3.199218v8.957032c0 1.769531 1.433594 3.199218 3.199219 3.199218zm0 0" fill="#fff" style="fill: rgb(255, 255, 255);"></path><path d="m259.359375 243.367188h3.519531c1.765625 0 3.199219-1.429688 3.199219-3.199219v3.199219c0 1.765624-1.429687 3.199218-3.199219 3.199218h-3.519531c-1.765625 0-3.199219-1.429687-3.199219-3.199218v-3.199219c0 1.769531 1.433594 3.199219 3.199219 3.199219zm0 0" fill="#d0d2d3" style="fill: rgb(208, 210, 211);"></path><path d="m214.722656 249.769531h3.519532c1.765624 0 3.199218-1.433593 3.199218-3.203125v-8.957031c0-1.765625-1.429687-3.199219-3.199218-3.199219h-3.519532c-1.765625 0-3.199218 1.433594-3.199218 3.199219v8.957031c0 1.769532 1.429687 3.203125 3.199218 3.203125zm0 0" fill="#f6ca14" style="fill: rgb(255, 184, 31);"></path><path d="m214.722656 246.566406h3.519532c1.765624 0 3.199218-1.429687 3.199218-3.199218v-8.957032c0-1.765625-1.429687-3.199218-3.199218-3.199218h-3.519532c-1.765625 0-3.199218 1.429687-3.199218 3.199218v8.957032c0 1.769531 1.429687 3.199218 3.199218 3.199218zm0 0" fill="#fff" style="fill: rgb(255, 255, 255);"></path><path d="m214.722656 243.367188h3.519532c1.765624 0 3.199218-1.429688 3.199218-3.199219v3.199219c0 1.765624-1.429687 3.199218-3.199218 3.199218h-3.519532c-1.765625 0-3.199218-1.429687-3.199218-3.199218v-3.199219c0 1.769531 1.429687 3.199219 3.199218 3.199219zm0 0" fill="#d0d2d3" style="fill: rgb(208, 210, 211);"></path><path d="m211.683594 206.574219h9.597656v-7.527344c0-2.082031 1.691406-3.773437 3.773438-3.773437h27.488281c2.082031 0 3.777343 1.691406 3.777343 3.773437v7.527344h9.597657v-7.527344c0-7.371094-6-13.371094-13.375-13.371094h-27.488281c-7.371094 0-13.371094 6-13.371094 13.371094zm0 0" fill="#f6ca14" style="fill: rgb(255, 184, 31);"></path><path d="m225.054688 185.675781h27.488281c7.375 0 13.375 6 13.375 13.375v7.527344h-2.144531v-6.796875c0-6.792969-5.527344-12.316406-12.316407-12.316406h-25.3125c-6.792969 0-12.320312 5.523437-12.320312 12.316406v6.796875h-2.140625v-7.527344c0-7.375 6-13.375 13.371094-13.375zm0 0" fill="#fddd3a" style="fill: rgb(208, 210, 211);"></path><path d="m216.480469 206.574219v-7.527344c0-4.734375 3.839843-8.574219 8.574219-8.574219h27.488281c4.738281 0 8.578125 3.839844 8.578125 8.574219v7.527344h-4.800782v-7.527344c0-2.082031-1.691406-3.773437-3.773437-3.773437h-27.488281c-2.082032 0-3.777344 1.691406-3.777344 3.773437v7.527344zm0 0" fill="#e7ad27" style="fill: rgb(255, 111, 60);"></path></svg>